<?xml version="1.0" encoding="UTF-8"?>
<svg version="1.1" xmlns="http://www.w3.org/2000/svg" width="512" height="512">
<path d="M0 0 C0.81845901 -0.00705963 1.63691803 -0.01411926 2.48017883 -0.02139282 C36.7461519 -0.24987728 36.7461519 -0.24987728 52.109375 3.203125 C53.47255859 3.50114014 53.47255859 3.50114014 54.86328125 3.80517578 C108.10652302 15.76340723 155.12963895 48.31719019 184.64453125 94.2578125 C198.29257407 115.94526174 207.75404541 139.1198075 213.109375 164.203125 C213.37403564 165.38116699 213.37403564 165.38116699 213.64404297 166.58300781 C217.83218657 186.00038717 216.3833717 206.45990615 216.109375 226.203125 C212.93603791 224.34350735 210.32120156 222.6340475 207.796875 219.953125 C205.47970467 217.5667854 203.13512629 215.30477198 200.609375 213.140625 C195.79253438 208.99436415 191.18477169 204.62777473 186.56445312 200.26538086 C185.94763672 199.6853833 185.33082031 199.10538574 184.6953125 198.5078125 C184.09380371 197.93474365 183.49229492 197.3616748 182.87255859 196.77124023 C180.93914566 194.98041466 180.93914566 194.98041466 177.796875 192.98046875 C173.77093337 188.81993895 173.56875208 184.4812496 172.734375 178.890625 C167.91406939 151.6581786 157.5576328 125.87411035 140.109375 104.203125 C139.42174072 103.34050049 139.42174072 103.34050049 138.72021484 102.46044922 C111.67129366 68.85754239 72.10915518 46.93051047 29.109375 42.203125 C-16.54067307 37.74599966 -60.07270223 51.64038545 -95.44042969 80.65551758 C-127.89283152 107.99734034 -148.11172224 147.99457819 -152.17529297 190.15673828 C-153.78897276 210.23195383 -152.43657335 229.81976097 -146.890625 249.203125 C-146.70048828 249.88310547 -146.51035156 250.56308594 -146.31445312 251.26367188 C-137.56175231 281.82638129 -120.5914065 310.67669436 -101.890625 336.203125 C-101.41173828 336.85780762 -100.93285156 337.51249023 -100.43945312 338.18701172 C-96.9757015 342.89956066 -93.45100773 347.56326453 -89.890625 352.203125 C-89.4265625 352.80898438 -88.9625 353.41484375 -88.484375 354.0390625 C-78.84348467 366.58317548 -68.52381307 378.49291052 -57.890625 390.203125 C-57.22160156 390.95335937 -56.55257812 391.70359375 -55.86328125 392.4765625 C-45.85997572 403.69069644 -35.55956966 414.62056464 -24.953125 425.265625 C-24.26798828 425.955354 -23.58285156 426.64508301 -22.87695312 427.35571289 C-18.92718469 431.29350942 -14.86066208 435.03013363 -10.63842773 438.67358398 C-8.62858091 440.43244561 -6.74543546 442.28207131 -4.890625 444.203125 C1.67012296 450.92402844 1.67012296 450.92402844 9.19720459 456.46846008 C11.109375 458.203125 11.109375 458.203125 11.59039307 460.61393738 C11.58151062 461.56657974 11.57262817 462.51922211 11.56347656 463.50073242 C11.56317444 464.58162643 11.56287231 465.66252045 11.56256104 466.77616882 C11.54191589 467.94186905 11.52127075 469.10756927 11.5 470.30859375 C11.49434021 471.50293533 11.48868042 472.69727692 11.48284912 473.92781067 C11.46042675 477.74915347 11.41021695 481.56956475 11.359375 485.390625 C11.3393177 487.9785021 11.3210656 490.56639387 11.3046875 493.15429688 C11.26054263 499.50422504 11.19357128 505.85360848 11.109375 512.203125 C7.05122836 509.83565889 3.52536473 507.15113548 -0.015625 504.078125 C-1.1776188 503.07983615 -2.34039019 502.08245174 -3.50390625 501.0859375 C-4.07834473 500.59383789 -4.6527832 500.10173828 -5.24462891 499.59472656 C-7.52596973 497.66597505 -9.86564397 495.81320824 -12.203125 493.953125 C-17.73510872 489.45940215 -22.89757339 484.60453223 -28.05786133 479.69433594 C-28.69747803 479.0862207 -29.33709473 478.47810547 -29.99609375 477.8515625 C-30.55449951 477.31708496 -31.11290527 476.78260742 -31.68823242 476.23193359 C-33.61656558 474.45558412 -35.58111769 472.74408614 -37.56738281 471.03344727 C-42.22534318 466.96946536 -46.59296123 462.64478584 -50.95703125 458.26953125 C-51.79475571 457.43276352 -52.63248016 456.59599579 -53.49559021 455.73387146 C-55.25569435 453.97444396 -57.01455177 452.21376847 -58.7722168 450.4519043 C-61.44533472 447.77343089 -64.12374751 445.10033627 -66.80273438 442.42773438 C-68.52115403 440.70865385 -70.23926342 438.98926311 -71.95703125 437.26953125 C-72.74888321 436.47970352 -73.54073517 435.68987579 -74.35658264 434.87611389 C-78.53712211 430.67810796 -82.56385529 426.40315044 -86.42396545 421.90789795 C-88.48138583 419.51645365 -90.62513939 417.20768266 -92.765625 414.890625 C-96.85377501 410.4078421 -100.73482912 405.80358708 -104.54296875 401.08203125 C-106.65368214 398.49368555 -108.80442953 395.94974019 -110.97827148 393.41479492 C-116.57328063 386.88164249 -121.82613113 380.15833745 -126.890625 373.203125 C-127.38320801 372.53120117 -127.87579102 371.85927734 -128.38330078 371.16699219 C-139.27997583 356.29553364 -149.74789938 341.22793882 -158.890625 325.203125 C-159.67228027 323.83631592 -159.67228027 323.83631592 -160.46972656 322.44189453 C-171.92202207 302.24177192 -181.488688 281.56910019 -187.890625 259.203125 C-188.15738037 258.2742749 -188.42413574 257.3454248 -188.69897461 256.38842773 C-192.85278563 240.90946409 -194.39360006 225.53938698 -194.28173828 209.55175781 C-194.26567203 206.8360748 -194.28169151 204.12188825 -194.30078125 201.40625 C-194.32147492 184.92601801 -192.55446786 168.57372612 -188.203125 152.640625 C-187.94966309 151.69501709 -187.69620117 150.74940918 -187.43505859 149.77514648 C-172.43744182 95.90698185 -135.43167745 51.50817989 -87.203125 24.078125 C-77.79663003 18.8646913 -67.9954253 14.84866194 -57.890625 11.203125 C-57.21354492 10.95723633 -56.53646484 10.71134766 -55.83886719 10.45800781 C-38.10943677 4.1524113 -18.84055725 0.1088337 0 0 Z " fill="#FF7900" transform="translate(193.890625,-0.203125)"/>
<path d="M0 0 C2.41631147 0.93720485 3.74595335 2.06626536 5.60742188 3.86474609 C6.59403809 4.80592285 6.59403809 4.80592285 7.60058594 5.76611328 C8.29120117 6.43803711 8.98181641 7.10996094 9.69335938 7.80224609 C11.13797867 9.18317997 12.58328899 10.56339131 14.02929688 11.94287109 C14.72635742 12.61125 15.42341797 13.27962891 16.14160156 13.96826172 C18.49459517 16.20795862 20.89482121 18.38921854 23.31835938 20.55224609 C26.88327018 23.73562798 30.42254117 26.94522297 33.94335938 30.17724609 C34.44496582 30.63760254 34.94657227 31.09795898 35.46337891 31.57226562 C37.51256899 33.45369342 39.5609528 35.33599797 41.609375 37.21826172 C46.74309683 41.93450172 51.88083094 46.64507201 57.06835938 51.30224609 C63.29404949 56.89144393 69.44889015 62.55748667 75.609375 68.21826172 C80.72146312 72.91462729 85.83721093 77.60549749 91.00585938 82.23974609 C95.46045848 86.23672988 99.85754416 90.29299019 104.24951172 94.35839844 C108.31717526 98.11952036 112.42397568 101.83434149 116.54882812 105.53271484 C121.93873604 110.38781019 127.26787742 115.31004151 132.609375 120.21826172 C138.77870759 125.88589509 144.96663051 131.53084 151.20507812 137.12255859 C154.04649387 139.68400256 154.04649387 139.68400256 154.47070312 141.97802734 C153.88864667 146.06372457 151.43275423 148.17818084 148.63085938 150.98974609 C147.52736734 152.13758071 146.42450903 153.28602489 145.32226562 154.43505859 C144.77199707 155.0012793 144.22172852 155.5675 143.65478516 156.15087891 C141.39730257 158.50077306 139.23281106 160.92928627 137.06835938 163.36474609 C134.48209221 166.26939843 131.84026401 169.07365247 129.06835938 171.80224609 C125.12461782 170.13374005 122.30594428 167.54754069 119.06835938 164.80224609 C119.0562291 165.92072433 119.0562291 165.92072433 119.04385376 167.0617981 C118.96533095 174.15075666 118.87787617 181.23953888 118.78083229 188.32826424 C118.73126561 191.97108414 118.68493871 195.61388044 118.64648438 199.25683594 C118.60912258 202.78425435 118.56263926 206.31145352 118.51029587 209.83868027 C118.48323194 211.81345066 118.46518588 213.7883382 118.44741821 215.76321411 C118.1387058 235.03247025 115.0858851 252.10897064 100.75195312 266.05615234 C87.91538101 276.91469729 75.27239823 280.10655231 58.87231445 280.09277344 C57.44396618 280.09876647 56.01562114 280.10557378 54.58728027 280.11312866 C50.72541654 280.13071996 46.86364158 280.13548121 43.00174165 280.13676023 C40.58274758 280.13818663 38.16377574 280.14246549 35.74478722 280.14775467 C27.28777013 280.16623427 18.8308159 280.17442814 10.3737793 280.17285156 C2.52007323 280.17165166 -5.33335736 280.19272951 -13.18699378 280.22433889 C-19.95334501 280.25059089 -26.71960677 280.26121509 -33.48600847 280.25994074 C-37.51672813 280.2594336 -41.54720289 280.26497801 -45.57787132 280.28629684 C-49.37425834 280.3058298 -53.1701707 280.30570248 -56.96657562 280.29126358 C-59.00248549 280.28821492 -61.03839619 280.30474703 -63.07423401 280.32214355 C-78.52238746 280.21790027 -91.66515575 275.26287329 -103.05664062 264.76708984 C-117.31515601 249.82535393 -119.167719 231.6554859 -119.34570312 211.87255859 C-119.36447955 210.50250163 -119.38405736 209.13245543 -119.40438843 207.76242065 C-119.45503387 204.20837859 -119.49501427 200.65429929 -119.53253174 197.10009766 C-119.57300314 193.45254836 -119.62389521 189.80514472 -119.67382812 186.15771484 C-119.76978337 179.0393327 -119.85443684 171.92085841 -119.93164062 164.80224609 C-122.57164062 167.11224609 -125.21164063 169.42224609 -127.93164062 171.80224609 C-135.38287115 168.07663083 -140.71493721 161.19361242 -146.09179688 154.93115234 C-149.63744303 150.82844076 -153.29610793 146.82523919 -156.93164062 142.80224609 C-152.75520457 137.76482169 -148.37483704 133.22382269 -143.55664062 128.80224609 C-142.88890625 128.18414062 -142.22117188 127.56603516 -141.53320312 126.92919922 C-137.79318836 123.47772075 -134.00971139 120.08865781 -130.15039062 116.77099609 C-126.852075 113.84432167 -123.64786721 110.81858095 -120.43164062 107.80224609 C-116.01807745 103.66352412 -111.58655479 99.57206392 -107.00195312 95.62255859 C-102.45353651 91.62338474 -98.04569671 87.46457901 -93.60302734 83.34863281 C-87.43852698 77.64516432 -81.24656188 71.97175612 -74.99414062 66.36474609 C-71.10793465 62.87776513 -67.26321256 59.34892624 -63.43164062 55.80224609 C-58.80541745 51.52000001 -54.1448544 47.28016797 -49.45117188 43.07177734 C-44.57953817 38.68353055 -39.75951738 34.23850801 -34.93164062 29.80224609 C-21.90437146 17.83168824 -21.90437146 17.83168824 -15.45117188 12.08740234 C-13.60367316 10.41176397 -11.79766743 8.71891935 -10.00585938 6.98583984 C-9.5141626 6.51799072 -9.02246582 6.0501416 -8.51586914 5.56811523 C-7.12831347 4.24556133 -5.7522981 2.91093105 -4.37695312 1.57568359 C-1.93164062 -0.19775391 -1.93164062 -0.19775391 0 0 Z M-2.27929688 56.08740234 C-2.84519531 56.67392578 -3.41109375 57.26044922 -3.99414062 57.86474609 C-6.43924638 60.34442911 -8.91906535 62.7161674 -11.55664062 64.98974609 C-15.16739909 68.10559365 -18.68292594 71.31206725 -22.18164062 74.55224609 C-23.01489868 75.32375 -23.01489868 75.32375 -23.86499023 76.11083984 C-24.99683631 77.15908088 -26.12859064 78.20742099 -27.26025391 79.25585938 C-34.25070978 85.72351165 -41.29030983 92.13542835 -48.37695312 98.49755859 C-51.19942547 101.04382569 -54.00555647 103.60751459 -56.80664062 106.17724609 C-57.30284912 106.63220459 -57.79905762 107.08716309 -58.31030273 107.5559082 C-60.9638765 109.99066578 -63.61235432 112.43077835 -66.25585938 114.87646484 C-66.79807129 115.37678223 -67.3402832 115.87709961 -67.89892578 116.39257812 C-68.93795678 117.35146348 -69.97547166 118.31199511 -71.01123047 119.27441406 C-73.24449823 121.33312404 -75.39558103 123.1115397 -77.93164062 124.80224609 C-78.38474764 126.67861041 -78.38474764 126.67861041 -78.31259155 128.8679657 C-78.32105103 129.71884262 -78.3295105 130.56971954 -78.33822632 131.44638062 C-78.33215363 132.38196808 -78.32608093 133.31755554 -78.31982422 134.28149414 C-78.32508118 135.26540634 -78.33033813 136.24931854 -78.33575439 137.26304626 C-78.34900494 140.5301786 -78.34019496 143.79682715 -78.33007812 147.06396484 C-78.33209821 149.33120314 -78.33500911 151.59844081 -78.33877563 153.86567688 C-78.34320651 158.62641564 -78.33674634 163.38698587 -78.32275391 168.14770508 C-78.30571035 174.24310923 -78.31546789 180.3381157 -78.3334713 186.43350506 C-78.34433003 191.12017288 -78.34085232 195.80674704 -78.33308792 200.49341774 C-78.33108917 202.74003967 -78.33353376 204.98667015 -78.34052658 207.23328209 C-78.34816975 210.3810908 -78.336494 213.52826383 -78.31982422 216.67602539 C-78.32893326 218.06422485 -78.32893326 218.06422485 -78.33822632 219.48046875 C-78.27818022 225.62014677 -77.5292279 230.63688019 -73.50195312 235.54443359 C-68.59177983 239.3929478 -64.64969844 239.92489305 -58.55606079 239.93595886 C-56.95802864 239.94235634 -56.95802864 239.94235634 -55.32771301 239.94888306 C-54.16914291 239.94842987 -53.01057281 239.94797668 -51.81689453 239.94750977 C-50.58870499 239.95086838 -49.36051544 239.95422699 -48.09510803 239.95768738 C-44.73345213 239.96555154 -41.371858 239.96886447 -38.01019716 239.96950316 C-35.9076985 239.97021501 -33.80520626 239.97235189 -31.7027092 239.97500038 C-24.36137228 239.98424574 -17.02005349 239.98833627 -9.67871094 239.98754883 C-2.84579304 239.9869482 3.98704587 239.99749912 10.81994379 240.01329249 C16.69526838 240.0263865 22.57056721 240.03173195 28.44590628 240.03109342 C31.95103016 240.03083898 35.4560838 240.03365997 38.96119308 240.04427147 C42.8724346 240.05578981 46.78356852 240.05119423 50.69482422 240.04516602 C52.42660667 240.05359528 52.42660667 240.05359528 54.19337463 240.06219482 C63.6690375 240.17937718 63.6690375 240.17937718 72.02929688 236.25146484 C72.4959375 235.67009766 72.96257812 235.08873047 73.44335938 234.48974609 C73.92546875 233.91611328 74.40757812 233.34248047 74.90429688 232.75146484 C77.86423292 227.79506186 77.25403661 221.66514869 77.30883789 216.07421875 C77.32833244 214.61232368 77.32833244 214.61232368 77.34822083 213.12089539 C77.4745803 202.96697322 77.53159547 192.81224563 77.58325195 182.65771484 C77.61004356 177.84051932 77.65884966 173.02430695 77.72680664 168.20751953 C77.80872384 162.38557372 77.85142926 156.56456767 77.86631584 150.74207687 C77.87856335 148.52603693 77.90459534 146.31002807 77.94476509 144.09431839 C77.99822228 140.99144772 78.00123435 137.89229603 77.99243164 134.7890625 C78.0196228 133.87766006 78.04681396 132.96625763 78.0748291 132.02723694 C78.01843258 128.16445155 77.86890479 125.75978821 75.33793449 122.73246384 C73.31936089 120.95621551 71.24720807 119.37494619 69.06835938 117.80224609 C67.98662454 116.84389039 66.91590807 115.87268189 65.86523438 114.88037109 C65.11657104 114.18681519 65.11657104 114.18681519 64.3527832 113.47924805 C63.84642334 113.0083374 63.34006348 112.53742676 62.81835938 112.05224609 C61.69220995 111.00911251 60.56590427 109.9661476 59.43945312 108.92333984 C58.8785498 108.40368652 58.31764648 107.8840332 57.73974609 107.34863281 C51.57524573 101.64516432 45.38328063 95.97175612 39.13085938 90.36474609 C35.24465288 86.87776467 31.3999522 83.34890421 27.56835938 79.80224609 C22.93388194 75.51281046 18.27028698 71.25963615 13.56445312 67.04833984 C11.71393009 65.38315871 9.87368175 63.70952097 8.04101562 62.02490234 C7.28232178 61.32905029 7.28232178 61.32905029 6.50830078 60.61914062 C5.07754813 59.30556369 3.64906493 57.98951615 2.22070312 56.67333984 C-0.14027692 54.3021104 -0.14027692 54.3021104 -2.27929688 56.08740234 Z " fill="#FF7900" transform="translate(357.931640625,232.19775390625)"/>
<path d="M0 0 C2.38381328 1.89061053 4.6564913 3.84479457 6.91796875 5.87890625 C7.88605469 6.65363281 8.85414063 7.42835938 9.8515625 8.2265625 C23.9861149 19.99680599 33.84402417 39.75709534 35.91796875 57.87890625 C37.62263724 81.07837902 34.59924558 103.81881807 19.73046875 122.56640625 C18.47244012 124.01512554 17.20108926 125.45236309 15.91796875 126.87890625 C14.75587891 128.33103516 14.75587891 128.33103516 13.5703125 129.8125 C1.80006901 143.9470524 -17.96022034 153.80496167 -36.08203125 155.87890625 C-59.28150402 157.58357474 -82.02194307 154.56018308 -100.76953125 139.69140625 C-102.21825054 138.43337762 -103.65548809 137.16202676 -105.08203125 135.87890625 C-106.53416016 134.71681641 -106.53416016 134.71681641 -108.015625 133.53125 C-122.1501774 121.76100651 -132.00808667 102.00071716 -134.08203125 83.87890625 C-135.98507099 57.9797248 -131.27985319 34.20424157 -114.046875 14.09375 C-85.3771777 -17.69283849 -35.68062511 -24.55586747 0 0 Z M-79.45703125 38.12890625 C-84.06354992 42.53578447 -87.30382422 47.15745019 -90.08203125 52.87890625 C-90.42105469 53.53890625 -90.76007813 54.19890625 -91.109375 54.87890625 C-94.94440901 63.92746575 -94.55613917 76.74781831 -91.45703125 85.94140625 C-89.25048264 90.99711237 -86.47529605 95.5361878 -83.08203125 99.87890625 C-82.60378906 100.49507813 -82.12554687 101.11125 -81.6328125 101.74609375 C-74.04168816 110.35064275 -62.62849302 114.68963717 -51.44921875 115.78515625 C-38.64833073 116.14156148 -26.62024827 111.45413469 -17.14453125 102.81640625 C-7.50763319 92.36892798 -4.5799309 80.27226162 -4.8046875 66.44140625 C-5.1965335 56.9435271 -9.31483922 49.25978948 -15.08203125 41.87890625 C-15.56027344 41.26273438 -16.03851563 40.6465625 -16.53125 40.01171875 C-24.1242337 31.40506217 -35.52880767 27.07908694 -46.70703125 25.96875 C-59.32782456 25.63277981 -69.86228057 30.01358569 -79.45703125 38.12890625 Z " fill="#FF7900" transform="translate(254.08203125,134.12109375)"/>
<path d="M0 0 C19.8 0 39.6 0 60 0 C60 19.8 60 39.6 60 60 C40.2 60 20.4 60 0 60 C0 40.2 0 20.4 0 0 Z " fill="#FF7A00" transform="translate(328,371)"/>
</svg>
