<?xml version="1.0" encoding="UTF-8"?>
<svg version="1.1" xmlns="http://www.w3.org/2000/svg" width="512" height="512">
<path d="M0 0 C1.59297429 -0.01842163 1.59297429 -0.01842163 3.21812987 -0.03721541 C4.38386983 -0.03033888 5.54960979 -0.02346236 6.7506752 -0.01637745 C8.60943484 -0.02891244 8.60943484 -0.02891244 10.50574517 -0.04170066 C13.94762566 -0.06073182 17.38866257 -0.06176019 20.8305335 -0.05513132 C24.54167926 -0.0522609 28.25271176 -0.07229934 31.96380997 -0.08928394 C39.23581579 -0.11866848 46.50768292 -0.12593268 53.77974197 -0.12470844 C59.69111432 -0.12387655 65.60244276 -0.12973035 71.51380539 -0.14033413 C90.09903001 -0.17302624 108.68411949 -0.18199145 127.26936868 -0.17324439 C141.92993121 -0.16726456 156.59015912 -0.19764466 171.25063822 -0.24486711 C186.30259617 -0.29297235 201.35439302 -0.31504191 216.40642953 -0.30955631 C224.85752692 -0.30697968 233.30830395 -0.31496899 241.75933456 -0.35062695 C248.95575436 -0.38075166 256.15168717 -0.38650693 263.34813282 -0.36081793 C267.01926508 -0.34839685 270.68948213 -0.34718636 274.36053848 -0.37652683 C278.34290856 -0.40801019 282.32392063 -0.38510346 286.30633926 -0.35695362 C287.46315634 -0.37461503 288.61997341 -0.39227644 289.81184554 -0.41047305 C296.67244496 -0.30553017 300.33948531 0.78287707 305.18871909 5.74106586 C305.71465838 6.32538981 306.24059767 6.90971376 306.78247452 7.5117445 C307.74123168 8.43850593 308.70470184 9.36042934 309.67393875 10.27622509 C310.55916718 11.16065792 311.4443956 12.04509075 312.35644913 12.95632458 C312.85344315 13.45156628 313.35043716 13.94680798 313.86249161 14.457057 C315.47242459 16.06265797 317.07875433 17.67180537 318.68481827 19.28127575 C319.81427564 20.41005823 320.94388131 21.53869234 322.07362747 22.66718578 C324.4242474 25.01634106 326.77307305 27.36727145 329.12060928 29.71950817 C332.13232285 32.73695794 335.1485575 35.74984249 338.16611767 38.76144409 C340.49184519 41.08356621 342.81519593 43.40805455 345.1378231 45.73327732 C346.24989336 46.84601486 347.3627075 47.95800947 348.47627449 49.06924915 C350.02469861 50.61514286 351.56989693 52.16418941 353.11426163 53.71413708 C353.9939209 54.59459194 354.87358017 55.47504681 355.77989578 56.38218212 C359.20171559 60.02097973 358.92662047 62.9779063 358.91669559 67.74324894 C358.91904783 68.50074965 358.92140006 69.25825037 358.92382357 70.03870565 C358.93053585 72.60353438 358.93005468 75.16831272 358.92964554 77.73314953 C358.93294277 79.57993622 358.93666803 81.42672219 358.94078702 83.27350724 C358.95083098 88.36917224 358.95452764 93.46482545 358.95717633 98.56049895 C358.96107223 104.04798591 358.97065095 109.53546347 358.97938919 115.02294445 C358.99917251 128.2843856 359.00922158 141.54582754 359.01811698 154.80727977 C359.0224963 161.04594834 359.02786398 167.28461606 359.03310585 173.52328396 C359.050119 194.25038696 359.06463982 214.9774895 359.07185459 235.70459843 C359.07232935 237.04541999 359.07280524 238.38624156 359.07328225 239.72706313 C359.07351863 240.3920035 359.07375501 241.05694388 359.07399854 241.74203396 C359.07519977 245.11107159 359.07641521 248.48010922 359.07764053 251.84914684 C359.07788068 252.51774756 359.07812083 253.18634828 359.07836826 253.87520962 C359.08626475 275.5627212 359.10970374 297.25017814 359.14219648 318.93766586 C359.17646942 341.85509774 359.19620217 364.77250757 359.19949883 387.68996727 C359.20166804 400.18740668 359.21047668 412.68476578 359.23596001 425.18218136 C359.25760445 435.82175828 359.26574834 446.46123541 359.25599322 457.10083185 C359.25143048 462.53318411 359.25344882 467.96533019 359.27275467 473.39765453 C359.29025865 478.36567118 359.28949338 483.33332929 359.27385738 488.30134906 C359.27146177 490.10350626 359.2759048 491.90568748 359.28768603 493.70780776 C359.30266006 496.14850056 359.2932346 498.58789891 359.27745914 501.02855778 C359.28768135 501.73622479 359.29790356 502.44389179 359.30843553 503.17300326 C359.26280266 506.38442982 358.94893613 508.26588535 357.13299245 510.94798338 C354.12062322 512.95206333 352.2881311 513.01295872 348.67920303 513.01510906 C347.41968323 513.02554005 346.16016342 513.03597104 344.86247635 513.04671812 C343.46210886 513.0380696 342.06174366 513.02904297 340.66138077 513.01967907 C339.17584496 513.02428644 337.6903137 513.03063826 336.20479202 513.03858805 C332.11686176 513.05532722 328.02930374 513.04701437 323.94137192 513.03464317 C319.53502725 513.02561367 315.12874775 513.03955194 310.72241592 513.05056286 C302.0881399 513.06837518 293.45400275 513.06449605 284.81972122 513.05291229 C277.80420159 513.0438889 270.78872094 513.04264923 263.77319717 513.04700756 C262.77576398 513.04762049 261.77833078 513.04823343 260.75067234 513.04886493 C258.72458139 513.0501438 256.69849045 513.05144065 254.67239952 513.0527553 C235.66136803 513.06416904 216.65041361 513.05103494 197.63939476 513.02955383 C181.31725773 513.01168213 164.99523449 513.01478602 148.67309952 513.03322887 C129.73138428 513.05462156 110.78973665 513.06307033 91.84801102 513.05077982 C89.82925798 513.04950559 87.81050492 513.0482481 85.79175186 513.04700756 C84.30174652 513.04608191 84.30174652 513.04608191 82.78164005 513.04513755 C75.77229887 513.04167984 68.76300048 513.04752205 61.75366592 513.05692577 C53.2148234 513.06812936 44.67612801 513.06514034 36.1373024 513.0438028 C31.7783231 513.03327021 27.41958936 513.02920795 23.06061172 513.04239941 C19.07334503 513.05428372 15.08655243 513.04782687 11.09932899 513.0264892 C9.65390048 513.02200622 8.20843225 513.02432728 6.7630291 513.03399235 C4.80396198 513.04609133 2.8447833 513.03133326 0.885746 513.01510906 C-0.74911507 513.01413495 -0.74911507 513.01413495 -2.41700363 513.01314116 C-5.21752548 512.5117445 -5.21752548 512.5117445 -7.56751966 511.00229502 C-9.90019651 507.48130772 -9.76887477 504.24310058 -9.72089005 500.15957165 C-9.72670381 499.30521432 -9.73251757 498.45085699 -9.73850751 497.57061005 C-9.7531852 494.68807585 -9.73918614 491.80638283 -9.72546005 488.92385387 C-9.73006589 486.84434859 -9.73641666 484.76484655 -9.74436903 482.68535137 C-9.76112895 476.95563006 -9.75278573 471.22617387 -9.74042416 465.49645138 C-9.73140319 459.3232264 -9.74532868 453.15004819 -9.75634384 446.97683239 C-9.77313435 435.57735765 -9.77163449 424.17799147 -9.76069797 412.77851939 C-9.75064483 402.24842321 -9.74800469 391.71835817 -9.75278854 381.18825817 C-9.75309408 380.49039485 -9.75339962 379.79253153 -9.75371442 379.07352084 C-9.75495973 376.2408296 -9.75623333 373.40813838 -9.75755348 370.57544717 C-9.7697958 343.9901651 -9.75868563 317.40493713 -9.73716589 290.81966341 C-9.71818276 267.18834895 -9.71988124 243.5571207 -9.73900986 219.925807 C-9.76041774 193.38986672 -9.76892766 166.85397426 -9.7565608 140.31802654 C-9.75527789 137.49042798 -9.75402653 134.66282941 -9.75278854 131.83523083 C-9.75247223 131.13897868 -9.75215592 130.44272653 -9.75183003 129.72537583 C-9.74727573 119.20062039 -9.75260943 108.67589946 -9.76270676 98.1511488 C-9.77412785 86.1867714 -9.77093238 74.22249587 -9.74958378 62.25812244 C-9.73904419 56.14933648 -9.73500101 50.04072585 -9.74818039 43.93194103 C-9.76004992 38.34595816 -9.75363187 32.76031407 -9.73227018 27.17436218 C-9.72778096 25.14750951 -9.73012191 23.12062854 -9.73977333 21.09379387 C-9.75184187 18.35008799 -9.73956009 15.60756045 -9.72089005 12.86391735 C-9.73493704 11.66850936 -9.73493704 11.66850936 -9.74926782 10.44895172 C-9.70214865 7.01217399 -9.47594192 4.88906189 -7.51216054 2.02171773 C-4.76749166 0.21560197 -3.27011927 0.00810961 0 0 Z M6.78247452 16.5117445 C6.78247452 174.9117445 6.78247452 333.3117445 6.78247452 496.5117445 C117.66247452 496.5117445 228.54247452 496.5117445 342.78247452 496.5117445 C342.78247452 356.5917445 342.78247452 216.6717445 342.78247452 72.5117445 C325.62247452 72.1817445 308.46247452 71.8517445 290.78247452 71.5117445 C277.78461145 58.51388143 287.13590444 34.89010069 286.78247452 16.5117445 C194.38247452 16.5117445 101.98247452 16.5117445 6.78247452 16.5117445 Z M302.78247452 29.5117445 C302.78247452 38.4217445 302.78247452 47.3317445 302.78247452 56.5117445 C311.69247452 56.5117445 320.60247452 56.5117445 329.78247452 56.5117445 C326.17693338 52.30527984 322.73957449 48.34150577 318.85669327 44.45315075 C317.97819717 43.57336559 317.09970108 42.69358044 316.19458389 41.78713512 C315.2954628 40.89188122 314.39634171 39.99662731 313.46997452 39.0742445 C312.55151749 38.15192028 311.63306046 37.22959606 310.68677139 36.27932262 C309.81472061 35.40856091 308.94266983 34.53779919 308.04419327 33.64065075 C307.24972794 32.84731335 306.4552626 32.05397594 305.63672256 31.23659801 C304.08251919 29.39822818 304.08251919 29.39822818 302.78247452 29.5117445 Z " fill="#FF8700" transform="translate(137.21752548217773,-0.511744499206543)"/>
<path d="M0 0 C0.87269531 -0.0038269 1.74539062 -0.00765381 2.64453125 -0.01159668 C4.48699092 -0.0143149 6.32948924 -0.00695994 8.171875 0.00976562 C10.99045934 0.03117752 13.80649485 0.00996199 16.625 -0.015625 C18.41667229 -0.01298171 20.20834299 -0.00785669 22 0 C22.84175781 -0.00809692 23.68351562 -0.01619385 24.55078125 -0.02453613 C28.09324743 0.03217376 30.40787845 0.20295175 33.53808594 1.93847656 C35.84222347 6.02497299 35.49165732 9.93792821 35.390625 14.546875 C35.38496521 15.51784119 35.37930542 16.48880737 35.37347412 17.48919678 C35.35110311 20.58705169 35.30090473 23.68374533 35.25 26.78125 C35.22993597 28.88279578 35.21168503 30.98435972 35.1953125 33.0859375 C35.1512358 38.2348217 35.08220258 43.38283903 35 48.53125 C35.94875 48.634375 36.8975 48.7375 37.875 48.84375 C41 49.53125 41 49.53125 43 52.53125 C43.26450634 55.49809074 43.26450634 55.49809074 43.28520203 59.21920776 C43.29170407 59.90583343 43.29820611 60.59245909 43.30490518 61.29989159 C43.32434819 63.61777174 43.32949436 65.9354652 43.3347168 68.25341797 C43.3456072 69.92539002 43.35733386 71.5973568 43.36982822 73.26931763 C43.40157795 77.87768191 43.42057673 82.48602484 43.4373579 87.09446478 C43.45335253 91.0442514 43.47673689 94.99398024 43.50018752 98.94372857 C43.58407601 113.09782727 43.6384405 127.25199393 43.6875 141.40625 C43.6914498 142.52377151 43.6953996 143.64129303 43.69946909 144.79267883 C43.77782277 166.98941184 43.84522239 189.18616736 43.88963318 211.38299561 C43.89957165 216.26542189 43.90966028 221.14784782 43.91992188 226.03027344 C43.92246322 227.24376386 43.92500456 228.45725429 43.92762291 229.70751715 C43.97029049 249.34013465 44.06822227 268.97208005 44.18841016 288.60435987 C44.31083989 308.76961087 44.38003657 328.93451602 44.3985796 349.1001339 C44.41038114 360.41863753 44.44568341 371.73600475 44.54135132 383.05413818 C44.62280815 392.69993597 44.6562141 402.34441198 44.62804568 411.99053824 C44.61516327 416.90729341 44.6243859 421.82123783 44.69579315 426.73755264 C45.19518332 463.0049545 45.19518332 463.0049545 32.52430725 476.16772461 C31.92771868 476.73700684 31.3311301 477.30628906 30.71646309 477.89282227 C24.52222993 483.80544775 19.76087794 489.47705006 19.2355957 498.21826172 C19.20421547 499.72738024 19.20641801 501.23767825 19.24682617 502.74658203 C19.32321875 506.2186045 19.28929462 508.12585266 17.23828125 511 C14.88939781 512.60691503 13.80670384 513.07510475 11 513.03125 C10.34 513.0415625 9.68 513.051875 9 513.0625 C5.96334215 512.25588776 4.81811305 511.08234105 3 508.53125 C2.953125 505.16015625 2.953125 505.16015625 3.10693359 503.20141602 C3.97352386 490.43473727 -3.77248921 482.47383783 -11.75244141 473.32446289 C-12.86498291 471.94182251 -12.86498291 471.94182251 -14 470.53125 C-14.56797761 469.90772506 -15.13595521 469.28420013 -15.72114426 468.6417805 C-21.99427769 461.01225938 -21.97253263 453.71088818 -21.84178162 444.29501343 C-21.84483771 442.65295366 -21.85097334 441.01089725 -21.85990578 439.36885893 C-21.8755022 434.87598738 -21.8476381 430.38429168 -21.81245935 425.89156985 C-21.78215681 421.03962277 -21.79246488 416.187739 -21.79777527 411.33572388 C-21.80144114 402.93577815 -21.77952723 394.53621379 -21.7401104 386.13636398 C-21.68315817 373.99174275 -21.66498386 361.84730544 -21.65619446 349.70256515 C-21.64088389 329.99740641 -21.59432603 310.29245082 -21.52807617 290.58740234 C-21.46379756 271.44874079 -21.41426104 252.31013446 -21.38452148 233.17138672 C-21.38176289 231.4010522 -21.38176289 231.4010522 -21.37894856 229.59495334 C-21.36981313 223.67396782 -21.36096721 217.7529819 -21.35226524 211.83199573 C-21.2797288 162.73160678 -21.15646348 113.63143831 -21 64.53125 C-22.77305664 64.78712405 -24.54344608 65.06152739 -26.3125 65.34375 C-27.79169922 65.56998047 -27.79169922 65.56998047 -29.30078125 65.80078125 C-32.17630632 66.57896242 -33.23803669 67.17626344 -35 69.53125 C-36.05652558 72.70082673 -36.12728242 74.93777816 -36.13130188 78.26701355 C-36.13531006 79.46280029 -36.13931824 80.65858704 -36.14344788 81.89060974 C-36.1426548 83.86131187 -36.1426548 83.86131187 -36.1418457 85.87182617 C-36.14487756 87.26813873 -36.14839909 88.6644503 -36.15237427 90.0607605 C-36.16026295 93.06948647 -36.16540813 96.07820057 -36.16866493 99.08693504 C-36.17457823 103.84870907 -36.19112265 108.61040847 -36.21000671 113.37214661 C-36.21634421 115.00305076 -36.22266983 116.63395496 -36.22898388 118.2648592 C-36.23214969 119.08167089 -36.2353155 119.89848258 -36.23857725 120.74004614 C-36.2806297 131.82546341 -36.31361609 142.91084619 -36.32592773 153.99633789 C-36.33431774 161.47393105 -36.35684437 168.95133963 -36.3952834 176.42884046 C-36.41501506 180.38399755 -36.42745838 184.33887892 -36.42244911 188.29408836 C-36.41779007 192.01822199 -36.43167576 195.74183378 -36.45946121 199.46586227 C-36.46962474 201.47530078 -36.46014157 203.48480898 -36.44996643 205.49424744 C-36.53498516 213.74463564 -37.37360849 219.39298215 -42.96484375 225.7734375 C-43.61582031 226.31226563 -44.26679687 226.85109375 -44.9375 227.40625 C-45.58589844 227.96054688 -46.23429687 228.51484375 -46.90234375 229.0859375 C-52.5723244 232.99262808 -58.29637559 233.33568493 -65 232.53125 C-67.6875 231.03125 -67.6875 231.03125 -69 228.53125 C-69.74716848 224.61062398 -69.69234359 221.64502013 -67.5625 218.21875 C-64.50116433 216.20274846 -61.57230477 215.3781596 -58.0234375 214.53515625 C-55.80381895 213.68513176 -55.80381895 213.68513176 -54.88925743 211.3420229 C-53.91214084 208.25354398 -53.74948799 205.79112626 -53.7484436 202.55497742 C-53.74036934 200.75717331 -53.74036934 200.75717331 -53.73213196 198.92304993 C-53.73625595 197.61643906 -53.74037994 196.30982819 -53.74462891 194.96362305 C-53.74187741 193.56701452 -53.73819655 192.17040757 -53.73365784 190.77380371 C-53.72555729 187.77054924 -53.72337451 184.76736917 -53.72560501 181.76410484 C-53.72844289 177.01054706 -53.71406792 172.25713733 -53.69662476 167.50361633 C-53.64964477 153.98786644 -53.62566268 140.47212676 -53.61914062 126.95629883 C-53.61538484 119.48822562 -53.59731401 112.02032018 -53.56404626 104.55231887 C-53.54387641 99.83188075 -53.54144019 95.11187659 -53.55232644 90.39141309 C-53.55494221 87.44752061 -53.54088752 84.50387834 -53.52224541 81.56005096 C-53.51442665 79.55538677 -53.52632821 77.55067563 -53.53892517 75.54603577 C-53.46363038 67.30103259 -52.62275684 61.66537013 -47.03515625 55.2890625 C-46.38417969 54.75023437 -45.73320313 54.21140625 -45.0625 53.65625 C-44.08990234 52.82480469 -44.08990234 52.82480469 -43.09765625 51.9765625 C-38.99469502 49.14956873 -35.42906738 48.2806459 -30.48046875 48.3359375 C-28.9480957 48.34560547 -28.9480957 48.34560547 -27.38476562 48.35546875 C-26.32966797 48.37222656 -25.27457031 48.38898437 -24.1875 48.40625 C-23.11306641 48.41527344 -22.03863281 48.42429688 -20.93164062 48.43359375 C-18.28753146 48.45709694 -15.64388128 48.48995425 -13 48.53125 C-13.02094727 47.21930664 -13.04189453 45.90736328 -13.06347656 44.55566406 C-13.1358797 39.68793656 -13.18180113 34.82025665 -13.21972656 29.95214844 C-13.23984126 27.84529618 -13.26713667 25.73849975 -13.30175781 23.63183594 C-13.35028168 20.60337553 -13.37297016 17.57565322 -13.390625 14.546875 C-13.41127014 13.60507385 -13.43191528 12.66327271 -13.45318604 11.69293213 C-13.45449566 7.87573293 -13.43308948 5.29935459 -11.53808594 1.93847656 C-7.73085004 -0.1724226 -4.28908366 -0.04125698 0 0 Z M3 16.53125 C3 27.09125 3 37.65125 3 48.53125 C8.28 48.53125 13.56 48.53125 19 48.53125 C19 37.97125 19 27.41125 19 16.53125 C13.72 16.53125 8.44 16.53125 3 16.53125 Z M-5 64.53125 C-5.33947594 113.74689633 -5.60784797 162.96226038 -5.76597994 212.17884655 C-5.78473934 217.99634888 -5.80415429 223.81384885 -5.82397461 229.63134766 C-5.82790927 230.78945059 -5.83184392 231.94755353 -5.83589781 233.1407505 C-5.90107273 251.86436824 -6.01928758 270.58729138 -6.15729194 289.31049779 C-6.29783185 308.53884202 -6.38093759 327.76682382 -6.41132742 346.99566054 C-6.43185514 358.85031222 -6.49655514 370.70300033 -6.618747 382.55704716 C-6.69836856 390.69867066 -6.72192819 398.83928717 -6.70252066 406.98127124 C-6.69296185 411.67156027 -6.70703933 416.35843258 -6.78808212 421.04810524 C-7.24115794 447.98465351 -7.24115794 447.98465351 6.77861691 470.49146652 C7.8408409 471.51685069 8.90998397 472.53546007 10 473.53125 C17.253893 471.11328567 22.03662954 463.37357483 25.59806299 456.95764136 C30.39556314 445.23235486 28.82516074 430.86807998 28.6249187 418.43878019 C28.56388673 413.67903302 28.58495909 408.9195138 28.59555054 404.15948486 C28.60285608 395.93272472 28.55931089 387.70753106 28.48022079 379.48116493 C28.36595068 367.58782617 28.32993127 355.69523706 28.31238891 343.80140891 C28.28182414 324.5002343 28.18886416 305.19989277 28.05615234 285.89916992 C27.92744742 267.16158181 27.82844755 248.42422079 27.76904297 229.6862793 C27.76536484 228.52932976 27.76168671 227.37238023 27.75789712 226.18037162 C27.73962526 220.37571138 27.72193367 214.57104954 27.70453048 208.76638663 C27.55963353 160.68740153 27.30937911 112.60943456 27 64.53125 C16.44 64.53125 5.88 64.53125 -5 64.53125 Z " fill="#FF8700" transform="translate(69,-0.53125)"/>
<path d="M0 0 C5.26997695 1.63118334 9.23371022 6.13489403 13.296875 9.7109375 C29.32233918 22.42535536 48.25582069 29.1416981 68.40966797 31.5480957 C73.0833351 32.18031579 75.39976805 32.97233292 78.296875 36.7109375 C78.79808044 39.48274231 78.79808044 39.48274231 78.79858398 42.71020508 C78.80796494 43.92279495 78.81734589 45.13538483 78.82701111 46.38471985 C78.81016014 48.35024055 78.81016014 48.35024055 78.79296875 50.35546875 C78.79312396 51.72629371 78.79461655 53.0971191 78.79737854 54.46794128 C78.79876347 57.34723226 78.7862076 60.22602583 78.76342773 63.10522461 C78.73533659 66.75163651 78.73769774 70.39720399 78.75051785 74.04367542 C78.75756854 76.88120903 78.74957588 79.71855669 78.73726082 82.55606651 C78.73068479 84.54028133 78.73484243 86.52452272 78.73936462 88.50874329 C78.42220115 119.6961496 64.77717247 146.83641446 42.87866211 168.48120117 C38.02204891 173.16138724 33.10194592 177.24365532 27.296875 180.7109375 C25.62818359 181.72414062 25.62818359 181.72414062 23.92578125 182.7578125 C3.72928838 194.79460441 3.72928838 194.79460441 -6.703125 192.7109375 C-20.67882817 188.17342016 -32.49403398 180.01883994 -43.703125 170.7109375 C-44.26773438 170.27007812 -44.83234375 169.82921875 -45.4140625 169.375 C-66.05915894 153.09923614 -78.4247655 125.25668581 -81.703125 99.7109375 C-81.8027196 97.54095232 -81.86053753 95.36871437 -81.88012695 93.1965332 C-81.89296219 91.94866531 -81.90579742 90.70079742 -81.91902161 89.41511536 C-81.92718521 88.07232057 -81.93462967 86.72952125 -81.94140625 85.38671875 C-81.94548178 84.70307943 -81.9495573 84.01944012 -81.95375633 83.31508446 C-81.97450218 79.70542083 -81.98886034 76.09579406 -81.99829102 72.48608398 C-82.00941124 68.76356264 -82.04390677 65.04162986 -82.08346272 61.31931782 C-82.10958634 58.44798161 -82.11797833 55.57678785 -82.12157249 52.70534325 C-82.12643918 51.33260245 -82.13805573 49.95986805 -82.15661049 48.58724403 C-82.18093584 46.67069525 -82.17762362 44.75385601 -82.1730957 42.8371582 C-82.17896194 41.74796585 -82.18482819 40.6587735 -82.19087219 39.53657532 C-81.58669326 36.03642016 -80.45899407 34.87884005 -77.703125 32.7109375 C-75.43920898 32.00073242 -75.43920898 32.00073242 -72.94921875 31.69140625 C-72.02165771 31.56024414 -71.09409668 31.42908203 -70.13842773 31.29394531 C-69.14915283 31.16342773 -68.15987793 31.03291016 -67.140625 30.8984375 C-45.33706098 27.54113834 -27.40359216 19.15752047 -10.703125 4.7109375 C-7.18210708 1.69063923 -4.86441098 -0.23773437 0 0 Z M-7.953125 24.7109375 C-25.3525099 38.02053207 -44.41435887 44.49712931 -65.703125 48.7109375 C-65.72819938 53.58153933 -65.74615843 58.45210203 -65.75805664 63.32275391 C-65.76302675 64.9731512 -65.76980517 66.62354424 -65.77856445 68.27392578 C-65.94606325 100.68986895 -60.53430007 126.66005676 -38.703125 151.7109375 C-38.15140625 152.34773437 -37.5996875 152.98453125 -37.03125 153.640625 C-29.07959256 162.18275206 -12.41161166 175.29013622 -0.1796875 175.8203125 C2.28702186 175.10505849 4.11180364 174.06744153 6.296875 172.7109375 C7.91335938 171.87175781 7.91335938 171.87175781 9.5625 171.015625 C17.56481045 166.80567096 24.54758875 161.75210192 31.296875 155.7109375 C31.91820312 155.17210937 32.53953125 154.63328125 33.1796875 154.078125 C51.33835242 137.27080258 60.81084669 112.30692287 62.18115234 88.00683594 C62.64066898 74.91933677 62.43523765 61.8032373 62.296875 48.7109375 C61.74451172 48.59089355 61.19214844 48.47084961 60.62304688 48.34716797 C38.74149276 43.529419 18.33586689 37.11602706 1.1171875 22.14453125 C-2.69046484 19.14580076 -4.65014271 22.09681248 -7.953125 24.7109375 Z " fill="#FF8700" transform="translate(313.703125,39.2890625)"/>
<path d="M0 0 C1.1439901 -0.00623996 2.28798019 -0.01247993 3.46663666 -0.01890898 C6.64252578 -0.03211727 9.81780499 -0.02734515 12.99367905 -0.0149641 C16.41842676 -0.00592603 19.84309105 -0.01987711 23.26782227 -0.03088379 C29.97703364 -0.048687 36.68606621 -0.04482109 43.39528465 -0.03323323 C48.84711553 -0.02420623 54.29889622 -0.02297171 59.75073242 -0.02732849 C60.91383887 -0.02824789 60.91383887 -0.02824789 62.10044241 -0.02918586 C63.67557336 -0.03046474 65.2507043 -0.03176159 66.82583523 -0.03307623 C81.60206543 -0.0444873 96.37819643 -0.03136008 111.15441036 -0.00987476 C123.83801597 0.00799672 136.52147516 0.00489276 149.20507812 -0.0135498 C163.9277818 -0.03494724 178.65039849 -0.04338861 193.37311554 -0.03110075 C194.94250996 -0.02982653 196.51190439 -0.02856905 198.08129883 -0.02732849 C198.8535069 -0.02671139 199.62571498 -0.02609429 200.4213233 -0.02545848 C205.86773609 -0.02200219 211.31409379 -0.02783992 216.76049805 -0.0372467 C223.39627053 -0.04845558 230.0318537 -0.04545024 236.66760445 -0.02412373 C240.05447943 -0.01359812 243.4410386 -0.00951672 246.82791138 -0.02272034 C250.49626987 -0.03359472 254.16373051 -0.02000897 257.83203125 0 C258.90711693 -0.00892289 259.98220261 -0.01784577 261.08986664 -0.02703905 C268.27643033 0.04938763 268.27643033 0.04938763 271.57556152 2.41468048 C273.01900306 4.66875982 273.4575275 5.85117462 273.41601562 8.50793457 C273.43148437 9.49793457 273.43148437 9.49793457 273.44726562 10.50793457 C272.61058133 13.65780488 271.59936182 14.58412517 268.91601562 16.50793457 C265.22961889 17.12780633 261.56239796 17.04683006 257.83203125 17.01586914 C256.68804115 17.0221091 255.54405106 17.02834907 254.36539459 17.03477812 C251.18950547 17.04798641 248.01422626 17.04321429 244.8383522 17.03083324 C241.41360449 17.02179517 237.9889402 17.03574625 234.56420898 17.04675293 C227.85499761 17.06455614 221.14596504 17.06069023 214.4367466 17.04910237 C208.98491572 17.04007537 203.53313503 17.03884085 198.08129883 17.04319763 C196.91819238 17.04411703 196.91819238 17.04411703 195.73158884 17.045055 C194.15645789 17.04633388 192.58132695 17.04763073 191.00619602 17.04894537 C176.22996582 17.06035644 161.45383482 17.04722922 146.67762089 17.0257439 C133.99401528 17.00787242 121.31055609 17.01097638 108.62695312 17.02941895 C93.90424945 17.05081638 79.18163276 17.05925775 64.45891571 17.04696989 C62.88952129 17.04569567 61.32012686 17.04443819 59.75073242 17.04319763 C58.97852435 17.04258053 58.20631627 17.04196343 57.41070795 17.04132763 C51.96429516 17.03787133 46.51793746 17.04370906 41.0715332 17.05311584 C34.43576072 17.06432472 27.80017755 17.06131938 21.1644268 17.03999287 C17.77755182 17.02946726 14.39099265 17.02538586 11.00411987 17.03858948 C7.33576138 17.04946386 3.66830074 17.03587811 0 17.01586914 C-1.07508568 17.02479203 -2.15017136 17.03371491 -3.25783539 17.04290819 C-10.44439908 16.96648151 -10.44439908 16.96648151 -13.74353027 14.60118866 C-15.18697181 12.34710932 -15.62549625 11.16469452 -15.58398438 8.50793457 C-15.59945312 7.51793457 -15.59945312 7.51793457 -15.61523438 6.50793457 C-13.57830661 -1.16049937 -6.45352533 -0.05356231 0 0 Z " fill="#FF8700" transform="translate(183.083984375,255.4920654296875)"/>
<path d="M0 0 C0.980648 -0.00623996 1.96129601 -0.01247993 2.97166061 -0.01890898 C6.2668314 -0.03489934 9.56126867 -0.02221077 12.85644531 -0.00964355 C15.2150516 -0.01506197 17.57365451 -0.02218304 19.93225098 -0.03088379 C26.34538536 -0.04915328 32.75826298 -0.0420345 39.17140198 -0.02936745 C43.17494178 -0.0222641 47.17846391 -0.02359447 51.18200684 -0.02732849 C51.84639668 -0.02794142 52.51078653 -0.02855436 53.1953094 -0.02918586 C54.54496036 -0.03046475 55.8946113 -0.0317616 57.24426222 -0.03307623 C69.90309393 -0.04448529 82.56180982 -0.03136325 95.22062254 -0.00987476 C106.08496522 0.00799656 116.94913696 0.00489255 127.81347656 -0.0135498 C140.42667583 -0.03495081 153.03977355 -0.04338663 165.65298843 -0.03110075 C166.99770354 -0.02982654 168.34241865 -0.02856906 169.68713379 -0.02732849 C170.34877745 -0.02671139 171.01042112 -0.02609429 171.69211459 -0.02545848 C176.35707709 -0.02200325 181.02193986 -0.02803263 185.68688965 -0.0372467 C191.96436823 -0.04877912 198.24152315 -0.04082687 204.51896667 -0.01766968 C206.82646649 -0.01236867 209.13399342 -0.01391999 211.44148254 -0.02272034 C214.58440627 -0.03360413 217.72628407 -0.01999831 220.86914062 0 C221.78858837 -0.00892289 222.70803612 -0.01784577 223.65534592 -0.02703905 C229.81775524 0.04934726 229.81775524 0.04934726 232.99920654 2.41468048 C234.55066125 4.67723509 234.97702069 5.79111045 234.93457031 8.50793457 C234.95003906 9.49793457 234.95003906 9.49793457 234.96582031 10.50793457 C234.14793582 13.58702913 233.00549774 14.5965113 230.43457031 16.50793457 C227.25208039 17.11540814 224.10075948 17.04723076 220.86914062 17.01586914 C219.39816862 17.02522908 219.39816862 17.02522908 217.89748001 17.03477812 C214.60230922 17.05076848 211.30787196 17.03807991 208.01269531 17.0255127 C205.65408902 17.03093111 203.29548611 17.03805218 200.93688965 17.04675293 C194.52375527 17.06502242 188.11087765 17.05790364 181.69773865 17.04523659 C177.69419885 17.03813324 173.69067672 17.03946361 169.68713379 17.04319763 C169.02274394 17.04381056 168.3583541 17.0444235 167.67383122 17.045055 C166.32418027 17.04633389 164.97452933 17.04763074 163.62487841 17.04894537 C150.96604669 17.06035443 138.3073308 17.04723239 125.64851809 17.0257439 C114.7841754 17.00787258 103.92000366 17.0109766 93.05566406 17.02941895 C80.4424648 17.05081995 67.82936707 17.05925577 55.21615219 17.04696989 C53.87143709 17.04569568 52.52672197 17.0444382 51.18200684 17.04319763 C50.52036317 17.04258053 49.85871951 17.04196343 49.17702603 17.04132763 C44.51206353 17.03787239 39.84720077 17.04390177 35.18225098 17.05311584 C28.90477239 17.06464826 22.62761747 17.05669601 16.35017395 17.03353882 C14.04267414 17.02823781 11.7351472 17.02978913 9.42765808 17.03858948 C6.28473436 17.04947327 3.14285655 17.03586746 0 17.01586914 C-0.91944775 17.02479203 -1.83889549 17.03371491 -2.78620529 17.04290819 C-8.94861461 16.96652188 -8.94861461 16.96652188 -12.13006592 14.60118866 C-13.68152063 12.33863405 -14.10788006 11.22475869 -14.06542969 8.50793457 C-14.08089844 7.51793457 -14.08089844 7.51793457 -14.09667969 6.50793457 C-12.19519407 -0.65059952 -6.09930108 -0.05919137 0 0 Z " fill="#FF8700" transform="translate(181.5654296875,415.4920654296875)"/>
<path d="M0 0 C0.980648 -0.00623996 1.96129601 -0.01247993 2.97166061 -0.01890898 C6.2668314 -0.03489934 9.56126867 -0.02221077 12.85644531 -0.00964355 C15.2150516 -0.01506197 17.57365451 -0.02218304 19.93225098 -0.03088379 C26.34538536 -0.04915328 32.75826298 -0.0420345 39.17140198 -0.02936745 C43.17494178 -0.0222641 47.17846391 -0.02359447 51.18200684 -0.02732849 C51.84639668 -0.02794142 52.51078653 -0.02855436 53.1953094 -0.02918586 C54.54496036 -0.03046475 55.8946113 -0.0317616 57.24426222 -0.03307623 C69.90309393 -0.04448529 82.56180982 -0.03136325 95.22062254 -0.00987476 C106.08496522 0.00799656 116.94913696 0.00489255 127.81347656 -0.0135498 C140.42667583 -0.03495081 153.03977355 -0.04338663 165.65298843 -0.03110075 C166.99770354 -0.02982654 168.34241865 -0.02856906 169.68713379 -0.02732849 C170.34877745 -0.02671139 171.01042112 -0.02609429 171.69211459 -0.02545848 C176.35707709 -0.02200325 181.02193986 -0.02803263 185.68688965 -0.0372467 C191.96436823 -0.04877912 198.24152315 -0.04082687 204.51896667 -0.01766968 C206.82646649 -0.01236867 209.13399342 -0.01391999 211.44148254 -0.02272034 C214.58440627 -0.03360413 217.72628407 -0.01999831 220.86914062 0 C221.78858837 -0.00892289 222.70803612 -0.01784577 223.65534592 -0.02703905 C229.81775524 0.04934726 229.81775524 0.04934726 232.99920654 2.41468048 C234.55066125 4.67723509 234.97702069 5.79111045 234.93457031 8.50793457 C234.95003906 9.49793457 234.95003906 9.49793457 234.96582031 10.50793457 C234.14793582 13.58702913 233.00549774 14.5965113 230.43457031 16.50793457 C227.25208039 17.11540814 224.10075948 17.04723076 220.86914062 17.01586914 C219.39816862 17.02522908 219.39816862 17.02522908 217.89748001 17.03477812 C214.60230922 17.05076848 211.30787196 17.03807991 208.01269531 17.0255127 C205.65408902 17.03093111 203.29548611 17.03805218 200.93688965 17.04675293 C194.52375527 17.06502242 188.11087765 17.05790364 181.69773865 17.04523659 C177.69419885 17.03813324 173.69067672 17.03946361 169.68713379 17.04319763 C169.02274394 17.04381056 168.3583541 17.0444235 167.67383122 17.045055 C166.32418027 17.04633389 164.97452933 17.04763074 163.62487841 17.04894537 C150.96604669 17.06035443 138.3073308 17.04723239 125.64851809 17.0257439 C114.7841754 17.00787258 103.92000366 17.0109766 93.05566406 17.02941895 C80.4424648 17.05081995 67.82936707 17.05925577 55.21615219 17.04696989 C53.87143709 17.04569568 52.52672197 17.0444382 51.18200684 17.04319763 C50.52036317 17.04258053 49.85871951 17.04196343 49.17702603 17.04132763 C44.51206353 17.03787239 39.84720077 17.04390177 35.18225098 17.05311584 C28.90477239 17.06464826 22.62761747 17.05669601 16.35017395 17.03353882 C14.04267414 17.02823781 11.7351472 17.02978913 9.42765808 17.03858948 C6.28473436 17.04947327 3.14285655 17.03586746 0 17.01586914 C-0.91944775 17.02479203 -1.83889549 17.03371491 -2.78620529 17.04290819 C-8.94861461 16.96652188 -8.94861461 16.96652188 -12.13006592 14.60118866 C-13.68152063 12.33863405 -14.10788006 11.22475869 -14.06542969 8.50793457 C-14.08089844 7.51793457 -14.08089844 7.51793457 -14.09667969 6.50793457 C-12.19519407 -0.65059952 -6.09930108 -0.05919137 0 0 Z " fill="#FF8700" transform="translate(181.5654296875,375.4920654296875)"/>
<path d="M0 0 C0.980648 -0.00623996 1.96129601 -0.01247993 2.97166061 -0.01890898 C6.2668314 -0.03489934 9.56126867 -0.02221077 12.85644531 -0.00964355 C15.2150516 -0.01506197 17.57365451 -0.02218304 19.93225098 -0.03088379 C26.34538536 -0.04915328 32.75826298 -0.0420345 39.17140198 -0.02936745 C43.17494178 -0.0222641 47.17846391 -0.02359447 51.18200684 -0.02732849 C51.84639668 -0.02794142 52.51078653 -0.02855436 53.1953094 -0.02918586 C54.54496036 -0.03046475 55.8946113 -0.0317616 57.24426222 -0.03307623 C69.90309393 -0.04448529 82.56180982 -0.03136325 95.22062254 -0.00987476 C106.08496522 0.00799656 116.94913696 0.00489255 127.81347656 -0.0135498 C140.42667583 -0.03495081 153.03977355 -0.04338663 165.65298843 -0.03110075 C166.99770354 -0.02982654 168.34241865 -0.02856906 169.68713379 -0.02732849 C170.34877745 -0.02671139 171.01042112 -0.02609429 171.69211459 -0.02545848 C176.35707709 -0.02200325 181.02193986 -0.02803263 185.68688965 -0.0372467 C191.96436823 -0.04877912 198.24152315 -0.04082687 204.51896667 -0.01766968 C206.82646649 -0.01236867 209.13399342 -0.01391999 211.44148254 -0.02272034 C214.58440627 -0.03360413 217.72628407 -0.01999831 220.86914062 0 C221.78858837 -0.00892289 222.70803612 -0.01784577 223.65534592 -0.02703905 C229.81775524 0.04934726 229.81775524 0.04934726 232.99920654 2.41468048 C234.55066125 4.67723509 234.97702069 5.79111045 234.93457031 8.50793457 C234.95003906 9.49793457 234.95003906 9.49793457 234.96582031 10.50793457 C234.14793582 13.58702913 233.00549774 14.5965113 230.43457031 16.50793457 C227.25208039 17.11540814 224.10075948 17.04723076 220.86914062 17.01586914 C219.39816862 17.02522908 219.39816862 17.02522908 217.89748001 17.03477812 C214.60230922 17.05076848 211.30787196 17.03807991 208.01269531 17.0255127 C205.65408902 17.03093111 203.29548611 17.03805218 200.93688965 17.04675293 C194.52375527 17.06502242 188.11087765 17.05790364 181.69773865 17.04523659 C177.69419885 17.03813324 173.69067672 17.03946361 169.68713379 17.04319763 C169.02274394 17.04381056 168.3583541 17.0444235 167.67383122 17.045055 C166.32418027 17.04633389 164.97452933 17.04763074 163.62487841 17.04894537 C150.96604669 17.06035443 138.3073308 17.04723239 125.64851809 17.0257439 C114.7841754 17.00787258 103.92000366 17.0109766 93.05566406 17.02941895 C80.4424648 17.05081995 67.82936707 17.05925577 55.21615219 17.04696989 C53.87143709 17.04569568 52.52672197 17.0444382 51.18200684 17.04319763 C50.52036317 17.04258053 49.85871951 17.04196343 49.17702603 17.04132763 C44.51206353 17.03787239 39.84720077 17.04390177 35.18225098 17.05311584 C28.90477239 17.06464826 22.62761747 17.05669601 16.35017395 17.03353882 C14.04267414 17.02823781 11.7351472 17.02978913 9.42765808 17.03858948 C6.28473436 17.04947327 3.14285655 17.03586746 0 17.01586914 C-0.91944775 17.02479203 -1.83889549 17.03371491 -2.78620529 17.04290819 C-8.94861461 16.96652188 -8.94861461 16.96652188 -12.13006592 14.60118866 C-13.68152063 12.33863405 -14.10788006 11.22475869 -14.06542969 8.50793457 C-14.08089844 7.51793457 -14.08089844 7.51793457 -14.09667969 6.50793457 C-12.19519407 -0.65059952 -6.09930108 -0.05919137 0 0 Z " fill="#FF8700" transform="translate(181.5654296875,335.4920654296875)"/>
<path d="M0 0 C0.980648 -0.00623996 1.96129601 -0.01247993 2.97166061 -0.01890898 C6.2668314 -0.03489934 9.56126867 -0.02221077 12.85644531 -0.00964355 C15.2150516 -0.01506197 17.57365451 -0.02218304 19.93225098 -0.03088379 C26.34538536 -0.04915328 32.75826298 -0.0420345 39.17140198 -0.02936745 C43.17494178 -0.0222641 47.17846391 -0.02359447 51.18200684 -0.02732849 C51.84639668 -0.02794142 52.51078653 -0.02855436 53.1953094 -0.02918586 C54.54496036 -0.03046475 55.8946113 -0.0317616 57.24426222 -0.03307623 C69.90309393 -0.04448529 82.56180982 -0.03136325 95.22062254 -0.00987476 C106.08496522 0.00799656 116.94913696 0.00489255 127.81347656 -0.0135498 C140.42667583 -0.03495081 153.03977355 -0.04338663 165.65298843 -0.03110075 C166.99770354 -0.02982654 168.34241865 -0.02856906 169.68713379 -0.02732849 C170.34877745 -0.02671139 171.01042112 -0.02609429 171.69211459 -0.02545848 C176.35707709 -0.02200325 181.02193986 -0.02803263 185.68688965 -0.0372467 C191.96436823 -0.04877912 198.24152315 -0.04082687 204.51896667 -0.01766968 C206.82646649 -0.01236867 209.13399342 -0.01391999 211.44148254 -0.02272034 C214.58440627 -0.03360413 217.72628407 -0.01999831 220.86914062 0 C221.78858837 -0.00892289 222.70803612 -0.01784577 223.65534592 -0.02703905 C229.81775524 0.04934726 229.81775524 0.04934726 232.99920654 2.41468048 C234.55066125 4.67723509 234.97702069 5.79111045 234.93457031 8.50793457 C234.95003906 9.49793457 234.95003906 9.49793457 234.96582031 10.50793457 C234.14793582 13.58702913 233.00549774 14.5965113 230.43457031 16.50793457 C227.25208039 17.11540814 224.10075948 17.04723076 220.86914062 17.01586914 C219.39816862 17.02522908 219.39816862 17.02522908 217.89748001 17.03477812 C214.60230922 17.05076848 211.30787196 17.03807991 208.01269531 17.0255127 C205.65408902 17.03093111 203.29548611 17.03805218 200.93688965 17.04675293 C194.52375527 17.06502242 188.11087765 17.05790364 181.69773865 17.04523659 C177.69419885 17.03813324 173.69067672 17.03946361 169.68713379 17.04319763 C169.02274394 17.04381056 168.3583541 17.0444235 167.67383122 17.045055 C166.32418027 17.04633389 164.97452933 17.04763074 163.62487841 17.04894537 C150.96604669 17.06035443 138.3073308 17.04723239 125.64851809 17.0257439 C114.7841754 17.00787258 103.92000366 17.0109766 93.05566406 17.02941895 C80.4424648 17.05081995 67.82936707 17.05925577 55.21615219 17.04696989 C53.87143709 17.04569568 52.52672197 17.0444382 51.18200684 17.04319763 C50.52036317 17.04258053 49.85871951 17.04196343 49.17702603 17.04132763 C44.51206353 17.03787239 39.84720077 17.04390177 35.18225098 17.05311584 C28.90477239 17.06464826 22.62761747 17.05669601 16.35017395 17.03353882 C14.04267414 17.02823781 11.7351472 17.02978913 9.42765808 17.03858948 C6.28473436 17.04947327 3.14285655 17.03586746 0 17.01586914 C-0.91944775 17.02479203 -1.83889549 17.03371491 -2.78620529 17.04290819 C-8.94861461 16.96652188 -8.94861461 16.96652188 -12.13006592 14.60118866 C-13.68152063 12.33863405 -14.10788006 11.22475869 -14.06542969 8.50793457 C-14.08089844 7.51793457 -14.08089844 7.51793457 -14.09667969 6.50793457 C-12.19519407 -0.65059952 -6.09930108 -0.05919137 0 0 Z " fill="#FF8700" transform="translate(181.5654296875,295.4920654296875)"/>
<path d="M0 0 C0.93050171 -0.00700928 1.86100342 -0.01401855 2.81970215 -0.02124023 C5.89572993 -0.03884649 8.97083785 -0.02718794 12.046875 -0.01367188 C14.18392107 -0.01636603 16.32096594 -0.0202478 18.45800781 -0.02526855 C22.93696767 -0.03116718 27.41560847 -0.02258871 31.89453125 -0.00390625 C37.63829952 0.01888325 43.3813202 0.00576216 49.12506104 -0.01819611 C53.53798057 -0.03264409 57.9507226 -0.02805263 62.36364746 -0.01768494 C64.48156828 -0.0150149 66.59950517 -0.01829712 68.71740723 -0.02760315 C71.67662295 -0.03775205 74.63462479 -0.02229048 77.59375 0 C78.47075562 -0.00809692 79.34776123 -0.01619385 80.25134277 -0.02453613 C86.18484028 0.05834635 86.18484028 0.05834635 89.33886719 2.42492676 C90.91627877 4.68895613 91.33954845 5.78647741 91.296875 8.51757812 C91.31234375 9.50757813 91.31234375 9.50757813 91.328125 10.51757812 C90.51456318 13.58039909 89.34180405 14.60802586 86.796875 16.51757812 C83.73403347 17.12162149 80.70727013 17.06390172 77.59375 17.03515625 C76.66324829 17.04216553 75.73274658 17.0491748 74.77404785 17.05639648 C71.69802007 17.07400274 68.62291215 17.06234419 65.546875 17.04882812 C63.40982893 17.05152228 61.27278406 17.05540405 59.13574219 17.0604248 C54.65678233 17.06632343 50.17814153 17.05774496 45.69921875 17.0390625 C39.95545048 17.016273 34.2124298 17.02939409 28.46868896 17.05335236 C24.05576943 17.06780034 19.6430274 17.06320888 15.23010254 17.05284119 C13.11218172 17.05017115 10.99424483 17.05345337 8.87634277 17.0627594 C5.91712705 17.0729083 2.95912521 17.05744673 0 17.03515625 C-0.87700562 17.04325317 -1.75401123 17.0513501 -2.65759277 17.05969238 C-8.59109028 16.9768099 -8.59109028 16.9768099 -11.74511719 14.61022949 C-13.32252877 12.34620012 -13.74579845 11.24867884 -13.703125 8.51757812 C-13.71859375 7.52757812 -13.71859375 7.52757812 -13.734375 6.51757812 C-11.86960654 -0.50272668 -6.00604586 -0.05545061 0 0 Z " fill="#FF8700" transform="translate(365.203125,455.482421875)"/>
<path d="M0 0 C2.0625 2.6875 2.0625 2.6875 3 6 C1.97998446 12.79838291 -1.51822846 16.1967789 -6.34375 20.8671875 C-7.06864624 21.58738068 -7.79354248 22.30757385 -8.54040527 23.04959106 C-10.84878995 25.33670073 -13.17425641 27.60555932 -15.5 29.875 C-17.06489192 31.42337848 -18.62870649 32.97284661 -20.19140625 34.5234375 C-23.04657613 37.34468678 -25.90206317 40.16549775 -28.77539062 42.96826172 C-29.35115845 43.53116913 -29.92692627 44.09407654 -30.5201416 44.67404175 C-33.33404254 47.19530674 -36.05405253 47.5310241 -39.80078125 47.45703125 C-44.24131236 46.53422105 -46.93109543 43.14428118 -50 40 C-50.96941206 39.05009728 -51.94089127 38.1023011 -52.9140625 37.15625 C-61.8898867 28.36540495 -61.8898867 28.36540495 -62.3125 23.125 C-62.25340627 20.17031347 -62.06564964 19.10941607 -60.5 16.5 C-57.69540435 14.81724261 -55.44228228 14.25901444 -52.16015625 14.40625 C-47.87025931 15.58538985 -45.01619273 18.87680265 -42 22 C-41.42894531 22.57105469 -40.85789062 23.14210937 -40.26953125 23.73046875 C-39.85058594 24.14941406 -39.43164062 24.56835938 -39 25 C-35.07662582 23.40979899 -32.67474415 20.85940856 -29.75390625 17.84375 C-28.74165636 16.81108038 -27.72928275 15.77853201 -26.71679688 14.74609375 C-25.13663388 13.12245355 -23.55903554 11.49641711 -21.98413086 9.86767578 C-20.45557421 8.29068819 -18.91779788 6.72314429 -17.37890625 5.15625 C-16.4669751 4.21587891 -15.55504395 3.27550781 -14.61547852 2.30664062 C-9.60211129 -2.11474401 -6.19490632 -2.7532917 0 0 Z " fill="#FF8600" transform="translate(342,113)"/>
<path d="M0 0 C1.051875 -0.00515625 2.10375 -0.0103125 3.1875 -0.015625 C4.280625 -0.00015625 5.37375 0.0153125 6.5 0.03125 C8.1396875 0.00804687 8.1396875 0.00804687 9.8125 -0.015625 C10.864375 -0.01046875 11.91625 -0.0053125 13 0 C14.43859375 0.00676758 14.43859375 0.00676758 15.90625 0.01367188 C19.21298564 0.673525 20.40908706 1.94238555 22.5 4.53125 C23.03125 6.53125 23.03125 6.53125 23 8.53125 C23.0103125 9.19125 23.020625 9.85125 23.03125 10.53125 C22.2561666 13.44921104 20.80895833 14.6243588 18.5 16.53125 C15.90625 17.04882812 15.90625 17.04882812 13 17.0625 C11.948125 17.06765625 10.89625 17.0728125 9.8125 17.078125 C8.719375 17.06265625 7.62625 17.0471875 6.5 17.03125 C4.8603125 17.05445313 4.8603125 17.05445313 3.1875 17.078125 C2.135625 17.07296875 1.08375 17.0678125 0 17.0625 C-0.9590625 17.05798828 -1.918125 17.05347656 -2.90625 17.04882812 C-6.21298564 16.388975 -7.40908706 15.12011445 -9.5 12.53125 C-10.03125 10.53125 -10.03125 10.53125 -10 8.53125 C-10.01546875 7.54125 -10.01546875 7.54125 -10.03125 6.53125 C-8.65240655 1.34030994 -4.94094259 0.02324368 0 0 Z " fill="#FF8700" transform="translate(433.5,415.46875)"/>
<path d="M0 0 C1.051875 -0.00515625 2.10375 -0.0103125 3.1875 -0.015625 C4.280625 -0.00015625 5.37375 0.0153125 6.5 0.03125 C8.1396875 0.00804687 8.1396875 0.00804687 9.8125 -0.015625 C10.864375 -0.01046875 11.91625 -0.0053125 13 0 C14.43859375 0.00676758 14.43859375 0.00676758 15.90625 0.01367188 C19.21298564 0.673525 20.40908706 1.94238555 22.5 4.53125 C23.03125 6.53125 23.03125 6.53125 23 8.53125 C23.0103125 9.19125 23.020625 9.85125 23.03125 10.53125 C22.2561666 13.44921104 20.80895833 14.6243588 18.5 16.53125 C15.90625 17.04882812 15.90625 17.04882812 13 17.0625 C11.948125 17.06765625 10.89625 17.0728125 9.8125 17.078125 C8.719375 17.06265625 7.62625 17.0471875 6.5 17.03125 C4.8603125 17.05445313 4.8603125 17.05445313 3.1875 17.078125 C2.135625 17.07296875 1.08375 17.0678125 0 17.0625 C-0.9590625 17.05798828 -1.918125 17.05347656 -2.90625 17.04882812 C-6.21298564 16.388975 -7.40908706 15.12011445 -9.5 12.53125 C-10.03125 10.53125 -10.03125 10.53125 -10 8.53125 C-10.01546875 7.54125 -10.01546875 7.54125 -10.03125 6.53125 C-8.65240655 1.34030994 -4.94094259 0.02324368 0 0 Z " fill="#FF8700" transform="translate(433.5,375.46875)"/>
<path d="M0 0 C1.051875 -0.00515625 2.10375 -0.0103125 3.1875 -0.015625 C4.280625 -0.00015625 5.37375 0.0153125 6.5 0.03125 C8.1396875 0.00804687 8.1396875 0.00804687 9.8125 -0.015625 C10.864375 -0.01046875 11.91625 -0.0053125 13 0 C14.43859375 0.00676758 14.43859375 0.00676758 15.90625 0.01367188 C19.21298564 0.673525 20.40908706 1.94238555 22.5 4.53125 C23.03125 6.53125 23.03125 6.53125 23 8.53125 C23.0103125 9.19125 23.020625 9.85125 23.03125 10.53125 C22.2561666 13.44921104 20.80895833 14.6243588 18.5 16.53125 C15.90625 17.04882812 15.90625 17.04882812 13 17.0625 C11.948125 17.06765625 10.89625 17.0728125 9.8125 17.078125 C8.719375 17.06265625 7.62625 17.0471875 6.5 17.03125 C4.8603125 17.05445313 4.8603125 17.05445313 3.1875 17.078125 C2.135625 17.07296875 1.08375 17.0678125 0 17.0625 C-0.9590625 17.05798828 -1.918125 17.05347656 -2.90625 17.04882812 C-6.21298564 16.388975 -7.40908706 15.12011445 -9.5 12.53125 C-10.03125 10.53125 -10.03125 10.53125 -10 8.53125 C-10.01546875 7.54125 -10.01546875 7.54125 -10.03125 6.53125 C-8.65240655 1.34030994 -4.94094259 0.02324368 0 0 Z " fill="#FF8700" transform="translate(433.5,335.46875)"/>
<path d="M0 0 C1.051875 -0.00515625 2.10375 -0.0103125 3.1875 -0.015625 C4.280625 -0.00015625 5.37375 0.0153125 6.5 0.03125 C8.1396875 0.00804687 8.1396875 0.00804687 9.8125 -0.015625 C10.864375 -0.01046875 11.91625 -0.0053125 13 0 C14.43859375 0.00676758 14.43859375 0.00676758 15.90625 0.01367188 C19.21298564 0.673525 20.40908706 1.94238555 22.5 4.53125 C23.03125 6.53125 23.03125 6.53125 23 8.53125 C23.0103125 9.19125 23.020625 9.85125 23.03125 10.53125 C22.2561666 13.44921104 20.80895833 14.6243588 18.5 16.53125 C15.90625 17.04882812 15.90625 17.04882812 13 17.0625 C11.948125 17.06765625 10.89625 17.0728125 9.8125 17.078125 C8.719375 17.06265625 7.62625 17.0471875 6.5 17.03125 C4.8603125 17.05445313 4.8603125 17.05445313 3.1875 17.078125 C2.135625 17.07296875 1.08375 17.0678125 0 17.0625 C-0.9590625 17.05798828 -1.918125 17.05347656 -2.90625 17.04882812 C-6.21298564 16.388975 -7.40908706 15.12011445 -9.5 12.53125 C-10.03125 10.53125 -10.03125 10.53125 -10 8.53125 C-10.01546875 7.54125 -10.01546875 7.54125 -10.03125 6.53125 C-8.65240655 1.34030994 -4.94094259 0.02324368 0 0 Z " fill="#FF8700" transform="translate(433.5,295.46875)"/>
</svg>
